<?xml version="1.0" encoding="UTF-8"?>
<!-- Generated by Pixelmator Pro 3.3.2 -->
<svg width="159" height="100" viewBox="0 0 159 100" xmlns="http://www.w3.org/2000/svg" xmlns:xlink="http://www.w3.org/1999/xlink">
    <g id="p1i7147">
        <g id="p1i7137">
            <g id="Group">
                <g id="g1">
                    <path id="Path" fill="#132b5f" stroke="none" d="M 51.99955 1.601173 C 59.391727 15.840813 73.356735 20.663757 88.932655 23.158287 C 99.113396 24.78878 109.979393 25.419418 120.160133 27.049889 C 136.626038 29.686974 151.289307 34.913109 158.303925 51.119907 C 158.303925 51.119907 131.388199 82.811325 128.085144 100 C 116.728584 85.448761 98.624199 81.056496 80.359863 78.131401 C 74.720772 77.22831 69.078262 76.464325 63.60379 75.587585 C 45.943031 72.759117 30.118643 68.732018 22.633955 54.952538 C 35.10574 29.393585 51.99955 1.601173 51.99955 1.601173 Z"/>
                </g>
            </g>
        </g>
        <g id="p1i7138">
            <g id="g2">
                <g id="g3">
                    <path id="path1" fill="#c80d0d" stroke="#ffffff" stroke-width="1.388982" stroke-linejoin="round" d="M 115.015022 26.333954 C 122.529793 32.611526 127.948547 39.109081 131.809601 45.432369 C 136.319473 45.308617 140.254456 45.617126 143.613907 46.15514 C 152.969025 47.653404 157.832047 50.893024 158.303818 51.121048 L 156.794754 52.86388 C 156.702591 52.757217 152.448151 49.95348 143.749588 48.560368 C 140.766663 48.082649 137.264587 47.768272 133.214767 47.796497 C 140.99144 61.467037 141.864349 72.247932 142.078857 72.637451 L 140.176987 75.485077 C 140.198517 75.350647 138.216324 62.468159 130.106186 47.912815 C 123.458511 48.216427 115.586815 49.355938 106.354057 52.076057 L 103.437553 50.992737 C 113.201439 47.542984 121.689819 46.011337 128.769958 45.499126 C 124.816048 38.883137 119.461884 31.982315 112.052391 25.920052 L 115.015022 26.333954 Z"/>
                </g>
            </g>
        </g>
        <g id="p1i7139">
            <g id="g4">
                <g id="g5">
                    <path id="path2" fill="#c80d0d" stroke="#ffffff" stroke-width="1.388982" stroke-linejoin="round" d="M 137.788315 31.626625 L 141.564941 33.401047 L 133.796585 45.889153 C 144.312714 52.248482 151.062469 60.326527 151.062469 60.326527 L 148.387161 63.681126 C 148.387161 63.681126 141.422882 55.6926 131.42363 49.569664 L 123.129036 63.143082 L 120.001099 60.781174 L 127.961426 47.569698 C 122.406181 44.419254 116.249413 42.633671 109.590454 41.567196 C 108.782494 41.437794 107.969864 41.323341 107.142761 41.204987 C 107.870522 40.01556 108.48925 38.745983 109.191147 37.82679 C 109.640694 37.898792 110.090248 37.970791 110.554718 38.04517 C 117.796974 39.205032 124.416283 40.804466 130.1987 43.867443 L 137.788315 31.626625 Z"/>
                </g>
            </g>
        </g>
        <g id="p1i7140">
            <g id="g6">
                <g id="g7">
                    <path id="path3" fill="#ffffff" stroke="none" d="M 119.467125 65.847275 L 118.558914 70.653831 L 123.300385 71.967133 L 118.946259 74.284073 L 120.911705 78.720276 L 116.410843 76.768936 L 114.066818 81.130234 L 112.76545 76.38472 L 108.034912 77.21122 L 110.853661 73.341621 L 107.180702 70.062103 L 112.082695 69.893234 L 112.256203 64.969025 L 115.440994 68.708664 L 119.467125 65.847275 Z"/>
                </g>
            </g>
        </g>
        <g id="p1i7141">
            <g id="g8">
                <g id="g9">
                    <path id="path4" fill="#ffffff" stroke="none" d="M 70.824738 24.746529 L 70.279266 27.673439 L 73.102684 28.479546 L 70.496864 29.768959 L 71.702766 32.515251 L 69.01651 31.331474 L 67.632431 33.924026 L 66.862976 31.048012 L 63.95787 31.613083 L 65.710159 29.217651 L 63.471519 27.351997 L 66.373894 27.186584 L 66.514587 24.194855 L 68.484024 26.493767 L 70.824738 24.746529 Z"/>
                </g>
            </g>
        </g>
        <g id="p1i7142">
            <g id="g10">
                <g id="g11">
                    <path id="path5" fill="#ffffff" stroke="none" d="M 77.792664 41.733189 L 77.246956 44.660122 L 80.157761 45.403061 L 77.525162 46.765354 L 78.670914 49.502048 L 75.986938 48.302925 L 74.600578 50.910854 L 73.890823 48.044369 L 70.910751 48.59745 L 72.668739 46.264366 L 70.451523 44.263931 L 73.342041 44.173332 L 73.473167 41.24147 L 75.461853 43.420582 L 77.792664 41.733189 Z"/>
                </g>
            </g>
        </g>
        <g id="p1i7143">
            <g id="g12">
                <g id="g13">
                    <path id="path6" fill="#ffffff" stroke="none" d="M 51.997841 27.359756 L 51.461819 30.226509 L 54.360542 31.044655 L 51.727837 32.406944 L 52.960625 35.080299 L 50.189724 33.944519 L 48.796074 36.597191 L 48.084038 33.745857 L 45.200466 34.17601 L 46.931335 31.915474 L 44.656696 29.890472 L 47.631752 29.751694 L 47.735767 26.892502 L 49.66692 29.047096 L 51.997841 27.359756 Z"/>
                </g>
            </g>
        </g>
        <g id="p1i7144">
            <g id="g14">
                <g id="g15">
                    <path id="path7" fill="#ffffff" stroke="none" d="M 56.729057 56.96814 L 56.196114 59.91235 L 59.031723 60.643181 L 56.399128 62.005562 L 57.535423 64.802094 L 54.921173 63.552902 L 53.464973 66.21093 L 52.695408 63.334789 L 49.77549 63.897495 L 51.542706 61.50449 L 49.388031 59.498829 L 52.281513 59.485241 L 52.407059 56.491131 L 54.397911 58.655491 L 56.729057 56.96814 Z"/>
                </g>
            </g>
        </g>
        <g id="p1i7145">
            <g id="g16">
                <g id="g17">
                    <path id="path8" fill="#ffffff" stroke="none" d="M 55.038059 42.271942 L 55.046833 45.57996 L 57.702438 47.435211 L 54.672474 48.395687 L 53.75127 51.55479 L 51.777164 48.901093 L 48.457371 48.984455 L 50.462917 46.353088 L 49.369915 43.286564 L 52.516769 44.282558 L 55.038059 42.271942 Z"/>
                </g>
            </g>
        </g>
        <g id="p1i7146">
            <g id="g18">
                <g id="g19">
                    <path id="path9" fill="#ffffff" stroke="none" d="M 52.656784 0.014221 C 53.599976 0.165268 53.95554 1.406532 53.666168 1.865852 C 41.334167 23.177925 3.955158 87.94883 3.955158 87.94883 C 3.955158 87.94883 2.878674 87.665527 1.797633 87.492386 C 1.108383 87.381989 0.425968 87.321495 0 87.390793 C 0 87.390793 50.40926 2.036201 51.450428 0.344421 C 51.926865 0.052567 52.32663 -0.038658 52.656784 0.014221 Z"/>
                </g>
            </g>
        </g>
    </g>
</svg>
